<svg aria-hidden="true" style="position: absolute; width: 0; height: 0; overflow: hidden;" version="1.1" xmlns="http://www.w3.org/2000/svg" xmlns:xlink="http://www.w3.org/1999/xlink">
<defs>
<symbol id="icon-circule" viewBox="0 0 32 32">
<path fill="#a68f4b" style="fill: var(--color1, #a68f4b)" d="M22 6c0 0.866-0.188 1.722-0.551 2.508l3.299 5.704c-1.501 1.6-3.412 2.762-5.525 3.351l-3.224-5.562h-0.056l-4.202 7.341c1.379 0.438 2.814 0.659 4.259 0.659 2.104 0 4.184-0.475 6.075-1.393 1.896-0.918 3.553-2.259 4.852-3.915 0.344-0.405 0.828-0.659 1.36-0.706 0.527-0.047 1.049 0.113 1.459 0.447s0.673 0.819 0.729 1.346c0.056 0.527-0.099 1.054-0.428 1.468-1.689 2.104-3.826 3.802-6.259 4.969-2.428 1.172-5.092 1.779-7.788 1.784-2.151 0-4.282-0.381-6.296-1.134l-3.539 6.113c-0.296 0.508-0.729 0.918-1.256 1.181l-3.464 1.732c-0.151 0.075-0.32 0.113-0.489 0.104-0.174-0.005-0.339-0.056-0.485-0.146-0.141-0.089-0.264-0.216-0.348-0.367-0.080-0.146-0.122-0.315-0.122-0.485v-3.464c0-0.527 0.136-1.045 0.4-1.506l3.751-6.475c-0.8-0.701-1.534-1.473-2.202-2.306-0.334-0.414-0.489-0.941-0.433-1.473 0.056-0.527 0.315-1.012 0.729-1.351 0.409-0.334 0.936-0.494 1.468-0.447 0.527 0.052 1.016 0.306 1.355 0.715 0.339 0.471 0.72 0.908 1.139 1.313l4.339-7.496c-0.372-0.814-0.56-1.699-0.546-2.598s0.226-1.779 0.626-2.584c0.4-0.8 0.974-1.506 1.68-2.056s1.529-0.936 2.405-1.129c0.875-0.193 1.784-0.188 2.659 0.019 0.871 0.202 1.689 0.602 2.386 1.162 0.701 0.565 1.266 1.275 1.652 2.085 0.391 0.809 0.588 1.694 0.593 2.593zM16 8c0.395 0 0.781-0.118 1.111-0.339s0.584-0.532 0.734-0.899c0.151-0.367 0.193-0.767 0.113-1.153-0.075-0.391-0.268-0.748-0.546-1.026s-0.635-0.471-1.026-0.546c-0.386-0.080-0.786-0.038-1.153 0.113s-0.678 0.405-0.899 0.734c-0.221 0.329-0.334 0.715-0.334 1.115 0 0.527 0.207 1.035 0.584 1.412s0.885 0.588 1.416 0.588zM23.256 24.616c2.038-0.781 3.934-1.896 5.605-3.308l2.729 4.72c0.268 0.456 0.409 0.979 0.409 1.506v3.464c0 0.169-0.047 0.339-0.127 0.489-0.085 0.146-0.207 0.273-0.348 0.362-0.146 0.089-0.315 0.141-0.485 0.151-0.169 0.005-0.339-0.033-0.494-0.108l-3.459-1.732c-0.527-0.264-0.96-0.673-1.256-1.181l-2.574-4.362z"></path>
</symbol>
<symbol id="icon-pencil" viewBox="0 0 32 32">
<path fill="#a68f4b" style="fill: var(--color1, #a68f4b)" d="M30.824 2.635c0.753 0.753 1.176 1.769 1.176 2.833s-0.424 2.085-1.176 2.833l-3.525 3.529-7.134-7.129 3.529-3.529c0.748-0.753 1.769-1.172 2.833-1.172s2.080 0.419 2.833 1.172l1.464 1.464zM2.805 22.061l15.944-15.948 7.134 7.134-15.953 15.939c-0.419 0.424-0.941 0.729-1.511 0.894l-6.508 1.859c-0.259 0.080-0.541 0.075-0.8 0-0.264-0.075-0.494-0.231-0.673-0.438-0.193-0.174-0.329-0.4-0.395-0.654-0.071-0.249-0.066-0.518 0.014-0.762l1.859-6.508c0.165-0.574 0.471-1.096 0.889-1.515zM15.6 6.433l-9.134 9.134-5.468-5.473c-0.278-0.282-0.499-0.612-0.649-0.974-0.151-0.367-0.231-0.758-0.231-1.148 0-0.395 0.080-0.786 0.231-1.153 0.151-0.362 0.372-0.692 0.649-0.969l4.885-4.889c0.278-0.278 0.612-0.499 0.974-0.649s0.753-0.231 1.148-0.231c0.395 0 0.786 0.080 1.148 0.231 0.367 0.151 0.696 0.372 0.974 0.649l1.238 1.238c-0.019 0.019-0.042 0.038-0.061 0.056l-4.005 4.009c-0.099 0.089-0.174 0.202-0.226 0.325s-0.080 0.249-0.080 0.386c0 0.132 0.024 0.264 0.075 0.386 0.047 0.122 0.122 0.235 0.216 0.329s0.207 0.165 0.329 0.216c0.122 0.052 0.254 0.075 0.386 0.075s0.264-0.028 0.386-0.080c0.122-0.052 0.235-0.132 0.325-0.226l4.009-4.005c0.019-0.019-0.014-0.038 0.056-0.061l2.824 2.824zM28.386 19.219c-0.024 0.019-0.042 0.038-0.066 0.056l-4 4.005c-0.184 0.188-0.287 0.442-0.282 0.706 0 0.259 0.108 0.513 0.292 0.696 0.184 0.188 0.438 0.292 0.701 0.292 0.259 0.005 0.513-0.099 0.701-0.278l4.005-4.005c0.019-0.075-0.014-0.047 0.056-0.066l1.238 1.242c0.565 0.56 0.88 1.322 0.88 2.122 0 0.795-0.315 1.558-0.88 2.118l-4.885 4.889c-0.565 0.56-1.327 0.875-2.122 0.875s-1.558-0.315-2.122-0.875l-5.473-5.468 9.134-9.139 2.824 2.828z"></path>
</symbol>
<symbol id="icon-company1" viewBox="0 0 130 32">
<path d="M89.709 23.048c1.305 0.017 2.611-0.236 3.815-0.749 1.187-0.531 2.333-1.162 3.411-1.886l5.347 6.998c-0.851 0.783-1.802 1.44-2.846 1.945-1.061 0.505-2.173 0.901-3.318 1.187-1.204 0.295-2.434 0.505-3.672 0.623-1.263 0.118-2.552 0.177-3.891 0.177-1.356 0-2.703-0.067-4.051-0.202-1.322-0.135-2.577-0.312-3.764-0.547-1.103-0.211-2.189-0.488-3.267-0.817-0.876-0.278-1.726-0.623-2.552-1.036l9.642-19.301h-7.192v-8.952h22.063l-10.526 22.56h0.8zM119.006 12.531c-0.286-0.674-0.707-1.272-1.246-1.76-0.547-0.505-1.179-0.909-1.878-1.187-0.716-0.295-1.491-0.455-2.265-0.455-0.783 0-1.549 0.16-2.265 0.455-1.381 0.547-2.501 1.6-3.116 2.947-0.312 0.665-0.48 1.398-0.48 2.147 0 0.741 0.168 1.474 0.48 2.147 0.615 1.339 1.735 2.4 3.116 2.939 0.716 0.295 1.482 0.455 2.265 0.455 0.775 0 1.549-0.16 2.265-0.455 0.699-0.278 1.331-0.674 1.878-1.187 0.539-0.488 0.96-1.086 1.246-1.752 0.295-0.682 0.455-1.415 0.455-2.147 0-0.741-0.16-1.474-0.455-2.147zM127.823 20.505c-0.792 1.76-1.92 3.36-3.318 4.699-1.432 1.356-3.116 2.434-4.952 3.158-3.891 1.516-8.219 1.516-12.109 0-3.663-1.457-6.619-4.269-8.236-7.857-0.808-1.811-1.221-3.764-1.221-5.752 0-1.979 0.413-3.933 1.221-5.743 0.792-1.76 1.92-3.352 3.318-4.691 1.44-1.339 3.099-2.408 4.918-3.158 3.891-1.558 8.227-1.558 12.109 0 1.827 0.741 3.503 1.811 4.943 3.158 1.398 1.331 2.526 2.922 3.318 4.691 0.808 1.811 1.221 3.764 1.221 5.743 0 1.987-0.413 3.941-1.221 5.752h0.008zM68.185 9.44v19.613h-9.389v-19.613h-5.785v-8.952h20.918v8.952h-5.743zM42.181 9.583c-0.211-0.211-0.455-0.379-0.733-0.488s-0.573-0.168-0.867-0.16h-1.448v4.379h1.448c0.295 0.008 0.589-0.051 0.867-0.16s0.522-0.278 0.733-0.488c0.211-0.202 0.379-0.446 0.488-0.707 0.118-0.269 0.177-0.556 0.177-0.842 0-0.295-0.059-0.581-0.177-0.842-0.109-0.269-0.278-0.505-0.488-0.707v0.017zM48.674 19.023l6.535 9.979h-10.080c-1.465-2.063-2.594-3.613-3.402-4.648-0.539-0.716-1.128-1.406-1.743-2.063-0.362-0.345-0.581-0.463-0.648-0.345-0.067 0.109-0.101 0.236-0.101 0.371v6.686h-9.339v-28.514h11.436c1.381 0.008 2.745 0.312 3.992 0.901 1.255 0.564 2.392 1.356 3.352 2.333 1.036 0.994 1.853 2.181 2.417 3.503 0.522 1.263 0.792 2.627 0.783 4-0.008 1.415-0.286 2.821-0.825 4.135-0.547 1.356-1.356 2.602-2.375 3.663zM14.375 11.571l-1.6 6.105h3.116l-1.516-6.105zM19.217 29.002l-0.901-3.276h-7.941l-0.893 3.276h-9.482l9.229-28.514h10.24l9.229 28.514h-9.482z"></path>
</symbol>
<symbol id="icon-company2" viewBox="0 0 118 32">
<path d="M18.855 26.181c-0.16 0.059-0.328 0.093-0.497 0.093l-1.878 0.059h-1.617c-1.331 1.474-2.914 2.695-4.682 3.604-1.255 0.623-2.644 0.926-4.051 0.893-0.867-0.017-1.718-0.177-2.535-0.463-0.741-0.253-1.423-0.648-2.013-1.162-0.547-0.463-0.977-1.044-1.263-1.701-0.286-0.674-0.387-1.406-0.286-2.131 0.059-1.078 0.446-2.122 1.095-2.989 0.514-0.632 1.187-1.128 1.954-1.432 0.691-0.261 1.432-0.362 2.173-0.312 0.573 0.034 1.145 0.135 1.701 0.312 0.345 0.143 0.64 0.396 0.834 0.716 0.152 0.253 0.219 0.547 0.185 0.842-0.025 0.126-0.076 0.253-0.143 0.362-0.076 0.101-0.16 0.194-0.269 0.269-0.135 0.076-0.286 0.109-0.438 0.109s-0.295-0.034-0.429-0.109c-0.505-0.236-1.086-0.278-1.617-0.118-0.463 0.16-0.867 0.438-1.171 0.808-0.303 0.387-0.497 0.834-0.573 1.314-0.101 0.488-0.059 0.985 0.109 1.448 0.185 0.488 0.522 0.893 0.968 1.162 0.589 0.345 1.272 0.505 1.954 0.472 1.533-0.109 2.989-0.741 4.118-1.785-0.564 0-0.918-0.177-1.053-0.429-0.076-0.126-0.109-0.278-0.109-0.421 0-0.152 0.034-0.295 0.109-0.421 0.202-0.345 0.48-0.648 0.808-0.876 0.362-0.261 0.792-0.413 1.238-0.446h0.716c0.295 0 0.64 0 1.027 0 1.465-1.651 2.829-3.394 4.076-5.213 1.398-2.038 2.762-4.093 4.143-6.198 1.373-2.105 2.627-4.177 3.891-6.215 1.272-2.038 2.543-3.882 3.747-5.474 0.269-0.371 0.674-0.623 1.128-0.707 0.387-0.093 0.8-0.051 1.171 0.109 0.16 0.076 0.312 0.185 0.429 0.328 0.118 0.135 0.211 0.303 0.261 0.472 0.051 0.219 0.059 0.446 0.008 0.665-0.042 0.227-0.135 0.429-0.269 0.606-1.027 1.583-2.029 3.318-3.032 5.221s-1.954 3.823-2.779 5.752c-0.825 1.928-1.634 3.798-2.257 5.592-0.589 1.558-1.069 3.149-1.457 4.775-0.286 1.086-0.421 2.215-0.387 3.343 0.067 0.851 0.379 1.272 0.977 1.272 0.261-0.008 0.531-0.067 0.775-0.16 0.337-0.109 0.665-0.253 0.977-0.413 0.337-0.194 0.665-0.404 0.977-0.632 0.32-0.227 0.615-0.48 0.893-0.758l1.255-1.272c0.371-0.387 0.716-0.8 1.036-1.229 0.076-0.126 0.185-0.227 0.312-0.303 0.126-0.067 0.269-0.109 0.421-0.109 0.303-0.025 0.606 0.034 0.876 0.168 0.253 0.118 0.455 0.32 0.581 0.564 0.059 0.126 0.076 0.261 0.051 0.396-0.025 0.143-0.084 0.261-0.185 0.362l-1.204 1.44c-0.514 0.615-1.154 1.305-1.954 2.080-0.505 0.472-0.977 0.884-1.381 1.204-0.387 0.312-0.808 0.581-1.255 0.8-0.413 0.211-0.851 0.354-1.297 0.446-0.505 0.093-1.019 0.143-1.533 0.135-0.522 0.051-1.053-0.051-1.524-0.278s-0.876-0.581-1.162-1.019c-0.564-1.044-0.8-2.24-0.674-3.419zM19.166 23.722c0.455-1.962 1.103-3.874 1.945-5.701-0.707 1.128-1.406 2.173-2.080 3.124s-1.314 1.819-1.954 2.627c0.421 0 0.808-0.051 1.171-0.051h0.918zM31.579 17.709c0.076-0.143 0.185-0.261 0.312-0.345 0.135-0.093 0.286-0.152 0.446-0.168 0.379-0.084 0.766-0.084 1.145 0 0.345 0.076 0.665 0.244 0.909 0.497 0.118 0.109 0.194 0.261 0.219 0.421s0 0.328-0.076 0.472l-0.269 0.531 0.177-0.135c0.64-0.589 1.364-1.069 2.156-1.423 0.48-0.227 1.011-0.32 1.541-0.269 0.413 0.051 0.792 0.244 1.078 0.539 0.303 0.295 0.547 0.648 0.733 1.027 0.261 0.64 0.261 1.356 0 1.987-0.312 0.859-0.691 1.684-1.137 2.476-0.337 0.657-0.674 1.272-1.036 1.853s-0.716 1.179-1.069 1.802c-0.143 0.194-0.227 0.413-0.244 0.648 0 0.109 0.084 0.135 0.219 0.109 0.168-0.051 0.32-0.109 0.472-0.194 0.168-0.101 0.328-0.219 0.488-0.345 0.691-0.531 1.339-1.103 1.945-1.735 0.556-0.547 1.069-1.128 1.549-1.743 0.076-0.135 0.185-0.244 0.32-0.32s0.286-0.118 0.438-0.126c0.295-0.025 0.589 0.042 0.851 0.177 0.244 0.118 0.446 0.32 0.564 0.564 0.059 0.118 0.076 0.253 0.067 0.387-0.017 0.135-0.067 0.261-0.152 0.362-0.16 0.177-0.354 0.438-0.606 0.783-0.253 0.337-0.547 0.707-0.876 1.095-0.337 0.387-0.691 0.783-1.103 1.196-0.413 0.421-0.808 0.808-1.229 1.171-0.64 0.598-1.373 1.095-2.173 1.465-0.531 0.244-1.112 0.371-1.701 0.371-0.446 0.008-0.884-0.135-1.229-0.413-0.328-0.261-0.589-0.598-0.766-0.968-0.286-0.615-0.328-1.305-0.109-1.945 0.278-0.867 0.648-1.718 1.103-2.518 0.109-0.236 0.261-0.514 0.446-0.842s0.362-0.657 0.556-0.968c0.194-0.312 0.371-0.674 0.531-0.968 0.143-0.269 0.295-0.531 0.472-0.783 0.185-0.328 0.253-0.539 0.227-0.648-0.034-0.101-0.135-0.135-0.286-0.101-0.194 0.042-0.387 0.101-0.564 0.194-0.202 0.101-0.404 0.219-0.589 0.337-0.472 0.328-0.968 0.691-1.465 1.086-0.488 0.379-0.952 0.792-1.398 1.229-0.303 0.707-0.598 1.423-0.909 2.147l-0.884 2.004c-0.269 0.623-0.497 1.154-0.691 1.6s-0.337 0.758-0.429 0.968c-0.093 0.202-0.227 0.371-0.396 0.514-0.168 0.135-0.362 0.236-0.573 0.286-0.421 0.126-0.867 0.126-1.28 0-0.396-0.126-0.724-0.396-0.918-0.758-0.101-0.227-0.152-0.472-0.135-0.716s0.093-0.48 0.227-0.691c0.261-0.589 0.632-1.381 1.086-2.341 0.463-0.96 0.977-1.937 1.448-3.032l1.432-3.107c0.404-1.128 0.808-1.987 1.137-2.703v0.008zM48.64 16.598l-3.722 6.493c-0.32 0.598-0.64 1.171-0.977 1.701-0.286 0.472-0.547 0.968-0.766 1.474-0.168 0.362-0.295 0.749-0.404 1.137-0.076 0.303-0.034 0.522 0.118 0.64 0.084 0.076 0.194 0.126 0.303 0.152 0.118 0.017 0.236 0.008 0.345-0.042 0.32-0.084 0.623-0.236 0.893-0.421 0.312-0.202 0.632-0.446 0.977-0.707 0.337-0.261 0.623-0.539 0.893-0.808l1.263-1.272c0.362-0.387 0.707-0.8 1.027-1.229 0.076-0.126 0.185-0.227 0.312-0.303 0.126-0.067 0.269-0.109 0.421-0.109 0.303-0.025 0.606 0.034 0.876 0.168 0.253 0.118 0.463 0.32 0.581 0.564 0.059 0.126 0.076 0.261 0.051 0.396-0.025 0.143-0.084 0.261-0.185 0.362-0.303 0.387-0.699 0.876-1.204 1.474s-1.154 1.272-1.954 2.046c-0.505 0.472-0.968 0.884-1.381 1.204-0.387 0.312-0.808 0.581-1.255 0.8-0.413 0.211-0.851 0.354-1.297 0.446-0.488 0.093-0.985 0.143-1.482 0.135-1.533 0-2.417-0.615-2.669-1.853-0.253-1.229 0.236-2.905 1.465-4.926 0.143-0.269 0.371-0.665 0.665-1.196 0.303-0.539 0.648-1.145 1.053-1.836l1.28-2.181c0.446-0.775 0.876-1.533 1.297-2.282-0.253 0.034-0.505 0.051-0.758 0.051h-0.808c-0.623 0-1.036-0.126-1.213-0.379-0.084-0.126-0.135-0.278-0.143-0.429s0.025-0.303 0.093-0.438c0.194-0.362 0.472-0.674 0.808-0.893 0.387-0.269 0.834-0.421 1.297-0.446h0.977c0.387 0 0.817 0 1.297 0l0.977-1.617c0.219-0.396 0.589-0.699 1.027-0.842 0.379-0.118 0.792-0.118 1.171 0 0.328 0.101 0.606 0.312 0.783 0.606 0.076 0.152 0.109 0.32 0.101 0.488-0.017 0.168-0.067 0.337-0.16 0.48l-0.455 0.758h1.255c0.32 0.025 0.648 0.025 0.968 0 0.446 0 0.716 0.135 0.808 0.387 0.042 0.135 0.059 0.286 0.042 0.429s-0.067 0.286-0.135 0.413c-0.177 0.345-0.413 0.648-0.716 0.893-0.295 0.269-0.682 0.421-1.078 0.421l-2.661 0.093zM62.804 23.722c0.093-0.126 0.202-0.227 0.345-0.303 0.135-0.067 0.286-0.109 0.438-0.109 0.303-0.025 0.606 0.034 0.876 0.168 0.253 0.126 0.455 0.32 0.581 0.564 0.059 0.126 0.076 0.269 0.051 0.404s-0.084 0.253-0.185 0.354c-0.152 0.177-0.345 0.438-0.606 0.775-0.253 0.337-0.556 0.707-0.893 1.095l-1.053 1.196c-0.379 0.413-0.783 0.8-1.204 1.162-0.64 0.598-1.364 1.095-2.156 1.465-0.514 0.244-1.086 0.371-1.659 0.362-0.438-0.017-0.867-0.177-1.204-0.446-0.337-0.278-0.623-0.606-0.851-0.977l-1.549 0.977c-0.766 0.371-1.625 0.547-2.484 0.488-0.707 0.017-1.406-0.168-2.013-0.531-0.573-0.362-1.019-0.893-1.263-1.524-0.278-0.741-0.371-1.549-0.269-2.333 0.135-1.053 0.48-2.055 1.011-2.973 0.539-1.019 1.221-1.962 2.038-2.779 0.724-0.733 1.533-1.381 2.4-1.937 0.733-0.472 1.524-0.851 2.358-1.12 0.623-0.219 1.28-0.337 1.945-0.354 0.328-0.008 0.665 0.042 0.977 0.152 0.269 0.101 0.531 0.227 0.775 0.379s0.472 0.328 0.674 0.531c0.194-0.362 0.514-0.632 0.901-0.775 0.387-0.16 0.808-0.227 1.238-0.185 0.328 0.034 0.632 0.185 0.851 0.429 0.185 0.244 0.168 0.564-0.067 0.968l-0.893 1.768c-0.362 0.691-0.733 1.415-1.12 2.139l-1.103 2.046c-0.253 0.472-0.531 0.935-0.825 1.381-0.143 0.194-0.219 0.438-0.211 0.682 0 0.135 0.177 0.194 0.379 0.185 0.261-0.034 0.505-0.118 0.724-0.253 0.303-0.16 0.573-0.371 0.808-0.615 0.505-0.539 0.918-0.977 1.229-1.272 0.371-0.371 0.707-0.766 1.011-1.196v0.008zM56.219 24.968c0.429-0.531 0.792-1.095 1.095-1.701 0.253-0.514 0.463-1.053 0.632-1.6 0.126-0.421 0.177-0.867 0.152-1.305 0-0.16-0.034-0.32-0.109-0.463-0.067-0.143-0.168-0.269-0.295-0.362-0.135-0.093-0.286-0.152-0.446-0.177-0.152-0.025-0.32-0.017-0.472 0.017-0.429 0.101-0.842 0.278-1.204 0.514-0.488 0.312-0.935 0.674-1.347 1.069-0.488 0.48-0.943 0.985-1.364 1.524-0.421 0.547-0.8 1.137-1.12 1.752-0.278 0.505-0.497 1.036-0.657 1.583-0.126 0.421-0.168 0.859-0.135 1.297 0.008 0.16 0.059 0.32 0.126 0.455 0.076 0.143 0.177 0.269 0.303 0.371 0.126 0.093 0.269 0.152 0.421 0.185s0.303 0.025 0.455-0.008c0.438-0.084 0.851-0.253 1.229-0.488 0.497-0.303 0.952-0.665 1.364-1.078 0.505-0.488 0.96-1.019 1.373-1.583zM62.804 23.714c0.707-0.808 1.356-1.667 1.954-2.56 0.682-1.027 1.314-1.937 1.878-2.829-0.379-0.488-0.657-1.036-0.825-1.634-0.202-0.623-0.303-1.28-0.312-1.937-0.025-0.623 0.059-1.255 0.244-1.853 0.168-0.556 0.514-1.044 0.968-1.398 0.531-0.455 1.187-0.733 1.886-0.783 0.539-0.025 1.078 0.143 1.516 0.463 0.429 0.379 0.733 0.867 0.867 1.415 0.194 0.598 0.236 1.229 0.118 1.844-0.084 0.463-0.236 0.918-0.446 1.339-0.244 0.514-0.531 1.061-0.851 1.659 0.396 0.084 0.808 0.084 1.204 0 0.404-0.093 0.825-0.076 1.213 0.059 0.303 0.109 0.564 0.303 0.758 0.564 0.177 0.219 0.278 0.488 0.278 0.775 0 0.126-0.025 0.253-0.067 0.379-0.051 0.118-0.118 0.227-0.211 0.32-0.118 0.118-0.362 0.387-0.707 0.792-0.354 0.413-0.775 0.926-1.238 1.499-0.472 0.564-0.977 1.196-1.415 1.844-0.438 0.606-0.851 1.229-1.229 1.878-0.303 0.497-0.556 1.036-0.758 1.592-0.168 0.455-0.143 0.766 0.059 0.909s0.438 0.236 0.682 0.244c0.253 0.008 0.497-0.051 0.707-0.177 0.674-0.278 1.314-0.648 1.886-1.095 0.682-0.505 1.339-1.053 1.945-1.651 0.539-0.514 1.053-1.053 1.524-1.625 0.093-0.118 0.219-0.211 0.354-0.269 0.135-0.067 0.278-0.101 0.429-0.109 0.295-0.017 0.581 0.034 0.851 0.152 0.244 0.118 0.438 0.303 0.564 0.547 0.059 0.118 0.076 0.261 0.051 0.396s-0.093 0.261-0.185 0.354c-0.598 0.783-1.246 1.516-1.954 2.206-0.817 0.851-1.735 1.617-2.72 2.274-0.943 0.64-1.979 1.128-3.074 1.448-0.48 0.152-0.985 0.211-1.491 0.16-0.497-0.042-0.985-0.185-1.432-0.421-0.362-0.16-0.674-0.421-0.901-0.741s-0.362-0.699-0.396-1.095c-0.076-0.918 0.076-1.844 0.446-2.695 0.429-1.036 0.985-2.013 1.659-2.905 0.665-0.935 1.448-1.777 2.324-2.501 0.16-0.118 0.286-0.261 0.387-0.421 0-0.076-0.295-0.236-0.918-0.472-0.749 1.162-1.474 2.223-2.173 3.208-0.699 0.977-1.179 1.634-1.415 1.937-0.093 0.135-0.219 0.244-0.362 0.328-0.143 0.076-0.303 0.126-0.463 0.135-0.295 0.025-0.581-0.042-0.834-0.202-0.227-0.135-0.413-0.345-0.514-0.598-0.051-0.126-0.059-0.261-0.042-0.396 0.025-0.135 0.084-0.253 0.177-0.354zM68.547 12.968c-0.109 0-0.227 0.025-0.32 0.076-0.101 0.051-0.185 0.126-0.244 0.219-0.143 0.227-0.236 0.488-0.269 0.758-0.042 0.32-0.042 0.648 0 0.968 0.059 0.362 0.185 0.707 0.362 1.027 0.177-0.362 0.345-0.716 0.488-1.078 0.135-0.312 0.244-0.64 0.32-0.968 0.059-0.244 0.059-0.497 0-0.741-0.017-0.067-0.067-0.135-0.126-0.185-0.059-0.042-0.135-0.067-0.211-0.076zM81.928 16.589l-3.714 6.501c-0.337 0.598-0.657 1.171-0.977 1.701-0.286 0.472-0.539 0.968-0.758 1.474-0.168 0.362-0.303 0.741-0.404 1.137-0.076 0.303 0 0.522 0.109 0.64 0.084 0.076 0.194 0.126 0.312 0.152 0.109 0.017 0.227 0.008 0.337-0.042 0.32-0.084 0.623-0.236 0.901-0.421 0.312-0.202 0.632-0.446 0.977-0.707 0.337-0.261 0.623-0.539 0.893-0.808 0.539-0.531 0.977-0.968 1.246-1.272 0.354-0.387 0.691-0.8 0.994-1.229 0.084-0.135 0.194-0.244 0.328-0.328 0.143-0.076 0.295-0.118 0.455-0.118 0.303-0.017 0.606 0.042 0.876 0.177 0.244 0.118 0.455 0.32 0.581 0.564 0.059 0.118 0.076 0.261 0.051 0.396s-0.093 0.261-0.185 0.354c-0.303 0.387-0.699 0.876-1.204 1.474-0.514 0.606-1.154 1.272-1.954 2.046-0.505 0.48-0.977 0.884-1.389 1.204-0.387 0.312-0.808 0.581-1.246 0.808-0.421 0.202-0.859 0.354-1.305 0.446-0.488 0.093-0.985 0.135-1.482 0.135-1.524 0-2.408-0.623-2.661-1.853s0.236-2.914 1.448-4.926c0.16-0.269 0.379-0.665 0.674-1.204l1.053-1.827c0.413-0.682 0.825-1.406 1.28-2.189 0.446-0.775 0.884-1.524 1.305-2.274-0.253 0.034-0.505 0.042-0.766 0.051h-0.808c-0.632 0-1.027-0.126-1.204-0.379-0.084-0.135-0.126-0.286-0.126-0.438s0.042-0.303 0.126-0.438c0.185-0.362 0.463-0.674 0.808-0.893 0.379-0.261 0.834-0.413 1.297-0.446h0.968c0.396 0 0.825 0 1.297 0l0.977-1.608c0.219-0.379 0.573-0.665 0.985-0.817 0.379-0.118 0.792-0.118 1.171 0 0.32 0.101 0.598 0.32 0.775 0.606 0.076 0.152 0.109 0.32 0.101 0.488-0.017 0.177-0.067 0.337-0.168 0.48l-0.446 0.758h1.255c0.328 0.025 0.648 0.025 0.977 0 0.446 0 0.707 0.135 0.8 0.387 0.042 0.135 0.059 0.286 0.042 0.429s-0.059 0.286-0.135 0.413c-0.168 0.345-0.413 0.648-0.707 0.893-0.312 0.261-0.707 0.404-1.112 0.396l-2.644 0.109zM89.381 23.714c0.076-0.126 0.177-0.227 0.312-0.303 0.126-0.067 0.269-0.109 0.413-0.109 0.303-0.025 0.606 0.034 0.876 0.168 0.261 0.118 0.463 0.32 0.589 0.564 0.059 0.126 0.076 0.261 0.051 0.396-0.025 0.143-0.093 0.261-0.185 0.362-0.303 0.387-0.699 0.876-1.196 1.474-0.606 0.716-1.255 1.398-1.945 2.046-0.505 0.472-0.977 0.884-1.381 1.204-0.387 0.312-0.808 0.581-1.255 0.8-0.413 0.211-0.851 0.354-1.297 0.446-0.488 0.093-0.985 0.143-1.482 0.135-1.533 0-2.417-0.615-2.669-1.853-0.253-1.229 0.227-2.905 1.457-4.926 0.261-0.446 0.547-0.968 0.851-1.491s0.606-1.095 0.918-1.625l0.893-1.516c0.286-0.472 0.539-0.884 0.741-1.213 0.227-0.396 0.598-0.691 1.036-0.825 0.371-0.118 0.766-0.118 1.137 0 0.328 0.109 0.606 0.32 0.792 0.606 0.076 0.152 0.109 0.32 0.093 0.497-0.017 0.168-0.084 0.337-0.194 0.472-0.32 0.573-0.699 1.229-1.12 1.987l-1.069 2.080c-0.32 0.598-0.64 1.171-0.977 1.701-0.286 0.472-0.547 0.968-0.766 1.474-0.168 0.362-0.303 0.749-0.404 1.137-0.076 0.303-0.034 0.522 0.118 0.64 0.084 0.076 0.194 0.126 0.303 0.152 0.118 0.017 0.236 0.008 0.345-0.042 0.345-0.084 0.674-0.227 0.968-0.421 0.337-0.219 0.665-0.455 0.977-0.707 0.32-0.278 0.623-0.539 0.893-0.808l1.213-1.272c0.345-0.387 0.665-0.8 0.968-1.229zM91.208 13.777c-0.16 0.278-0.362 0.539-0.598 0.766-0.177 0.185-0.371 0.362-0.573 0.531-0.371 0.227-0.783 0.396-1.213 0.488-0.345 0.084-0.707 0.101-1.053 0.042-0.126-0.017-0.253-0.067-0.354-0.143s-0.177-0.185-0.227-0.303c-0.101-0.227 0-0.556 0.244-0.968 0.126-0.236 0.253-0.463 0.404-0.682 0.185-0.286 0.337-0.547 0.497-0.792 0.101-0.168 0.244-0.312 0.413-0.429 0.168-0.109 0.362-0.185 0.556-0.219 0.396-0.067 0.792-0.051 1.171 0.067 0.337 0.109 0.623 0.328 0.8 0.632 0.084 0.16 0.118 0.337 0.109 0.514s-0.076 0.345-0.177 0.497zM89.735 22.872c0.531-0.952 1.187-1.827 1.954-2.611 0.724-0.716 1.533-1.331 2.417-1.844 0.766-0.455 1.625-0.758 2.509-0.893 0.792-0.118 1.6-0.042 2.349 0.227 0.278 0.084 0.522 0.236 0.716 0.446s0.328 0.472 0.387 0.758c0.067 0.581-0.025 1.171-0.253 1.709-0.236 0.632-0.564 1.221-0.977 1.752-0.362 0.463-0.775 0.884-1.221 1.272-0.261 0.236-0.615 0.362-0.968 0.354-0.32-0.017-0.632-0.135-0.876-0.337-0.227-0.177-0.396-0.421-0.488-0.691-0.051-0.118-0.059-0.244-0.025-0.362s0.101-0.227 0.194-0.303l0.766-0.758c0.278-0.278 0.531-0.564 0.766-0.876 0.168-0.202 0.286-0.446 0.354-0.707 0-0.194-0.101-0.286-0.404-0.286-0.362 0.017-0.724 0.126-1.027 0.328-0.446 0.269-0.851 0.598-1.213 0.968-0.455 0.438-0.876 0.909-1.255 1.406-0.429 0.547-0.817 1.128-1.162 1.735-0.404 0.64-0.606 1.389-0.564 2.147 0.025 0.278 0.109 0.556 0.244 0.8 0.135 0.253 0.32 0.463 0.547 0.64 0.514 0.32 1.12 0.446 1.718 0.371 0.893-0.101 1.752-0.413 2.501-0.909 0.387-0.236 0.758-0.488 1.12-0.758 0.387-0.303 0.758-0.615 1.12-0.968 0.362-0.362 0.691-0.657 0.977-0.977 0.269-0.269 0.522-0.564 0.758-0.867 0.076-0.126 0.185-0.227 0.312-0.303 0.118-0.067 0.261-0.109 0.413-0.118 0.278-0.017 0.564 0.034 0.825 0.16 0.244 0.109 0.446 0.303 0.564 0.547 0.059 0.126 0.084 0.269 0.059 0.413-0.017 0.135-0.067 0.269-0.16 0.379-0.219 0.312-0.455 0.615-0.707 0.909-0.303 0.337-0.64 0.707-1.036 1.095-0.387 0.387-0.792 0.766-1.221 1.154s-0.884 0.749-1.331 1.078c-0.792 0.64-1.693 1.12-2.669 1.423-0.834 0.253-1.701 0.379-2.568 0.379-0.741 0-1.474-0.135-2.156-0.404-0.539-0.194-1.019-0.531-1.381-0.968-0.371-0.455-0.623-0.977-0.741-1.549-0.126-0.539-0.168-1.095-0.126-1.651 0.034-0.589 0.143-1.171 0.312-1.743 0.152-0.547 0.371-1.069 0.648-1.566zM114.914 23.714c0.084-0.126 0.202-0.227 0.337-0.303 0.135-0.067 0.286-0.109 0.446-0.109 0.303-0.025 0.606 0.034 0.876 0.168 0.253 0.118 0.455 0.32 0.581 0.564 0.059 0.126 0.076 0.261 0.051 0.396s-0.093 0.261-0.185 0.362c-0.143 0.177-0.354 0.438-0.606 0.775s-0.556 0.707-0.893 1.095c-0.345 0.387-0.716 0.783-1.103 1.204-0.379 0.413-0.783 0.8-1.204 1.162-0.632 0.598-1.356 1.095-2.139 1.465-0.514 0.244-1.078 0.371-1.651 0.362-0.446-0.017-0.867-0.177-1.213-0.446-0.328-0.278-0.615-0.606-0.851-0.977l-1.549 0.977c-0.766 0.371-1.625 0.547-2.484 0.488-0.707 0.017-1.406-0.168-2.013-0.531-0.573-0.362-1.011-0.893-1.255-1.524-0.278-0.741-0.371-1.549-0.269-2.333 0.118-1.044 0.455-2.055 0.977-2.973 0.539-1.019 1.229-1.962 2.046-2.779 0.724-0.733 1.524-1.389 2.4-1.937 0.724-0.48 1.516-0.851 2.349-1.12 0.623-0.219 1.28-0.337 1.945-0.354 0.328-0.008 0.657 0.042 0.977 0.152 0.269 0.101 0.531 0.227 0.783 0.379 0.286 0.152 0.547 0.328 0.783 0.539 0.185-0.362 0.505-0.64 0.893-0.775 0.371-0.152 0.783-0.219 1.179-0.185 0.337 0.025 0.64 0.185 0.859 0.429 0.194 0.244 0.168 0.564-0.067 0.968-0.236 0.413-0.539 1.069-0.893 1.768-0.362 0.699-0.733 1.415-1.12 2.139-0.396 0.733-0.758 1.406-1.103 2.046-0.253 0.488-0.522 0.952-0.834 1.406-0.168 0.328-0.236 0.556-0.194 0.691 0.051 0.135 0.168 0.194 0.379 0.185 0.253-0.034 0.497-0.118 0.716-0.253 0.295-0.168 0.573-0.379 0.808-0.623 0.505-0.531 0.918-0.968 1.229-1.272 0.371-0.379 0.716-0.792 1.011-1.229zM108.328 24.968c0.808-0.977 1.406-2.105 1.777-3.318 0.118-0.421 0.177-0.859 0.152-1.305-0.008-0.152-0.042-0.312-0.109-0.455-0.067-0.135-0.168-0.261-0.286-0.362-0.143-0.101-0.303-0.16-0.472-0.185-0.168-0.034-0.345-0.017-0.505 0.025-0.429 0.101-0.842 0.278-1.213 0.514-0.48 0.312-0.926 0.674-1.339 1.069-0.488 0.48-0.943 0.985-1.364 1.524-0.421 0.556-0.8 1.145-1.12 1.76-0.278 0.505-0.497 1.036-0.657 1.583-0.126 0.421-0.168 0.859-0.126 1.297 0.008 0.16 0.051 0.32 0.126 0.455 0.067 0.143 0.168 0.269 0.295 0.371 0.126 0.093 0.269 0.152 0.421 0.185 0.152 0.025 0.303 0.025 0.455-0.008 0.438-0.084 0.851-0.253 1.229-0.488 0.497-0.303 0.952-0.665 1.373-1.078 0.497-0.488 0.952-1.019 1.364-1.583z"></path>
</symbol>
<symbol id="icon-company3" viewBox="0 0 109 32">
<path d="M4.88 31.040c-1.81 0-3.060-0.37-3.78-1.12-0.82-1.040-1.2-2.36-1.080-3.67v-22.43c-0.040-0.52 0.030-1.050 0.21-1.54 0.19-0.49 0.47-0.93 0.84-1.31 0.7-0.65 1.64-1 2.6-0.96h8.2l1.080 5.81h-5.97c-0.37 0-0.56 0.2-0.56 0.6v18.23c0 0.41 0.19 0.61 0.56 0.61h5.97l-1.12 5.81-6.95-0.030zM21.090 27.16l-0.57 3.88h-6.27l5.62-31.030h6.66l5.6 31.030h-6.25l-0.56-3.88h-4.23zM21.77 22.23h2.92l-1.47-10.97-1.45 10.97zM46.11 0.010c0.51-0.040 1.020 0.030 1.5 0.21 0.48 0.17 0.91 0.45 1.27 0.81 0.64 0.77 0.97 1.74 0.93 2.74v14.85c0 0.56-0.070 1.11-0.2 1.65-0.12 0.49-0.37 0.94-0.71 1.31-0.38 0.4-0.85 0.7-1.37 0.87-0.69 0.24-1.42 0.34-2.15 0.32h-5.33v8.27h-6.18v-31.030h12.24zM40.050 5.45v12.18h3.1c0.25 0 0.42-0.040 0.49-0.14 0.080-0.15 0.12-0.32 0.1-0.5v-10.95c0-0.4-0.18-0.59-0.55-0.59h-3.14zM64.67 0.010l1.53 5.81h-4.15v25.22h-6.36v-25.22h-4.16l1.62-5.81h11.52zM71.33 27.16l-0.55 3.88h-6.28l5.59-31.030h6.66l5.63 31.030h-6.24l-0.55-3.88h-4.26zM72.030 22.31h2.92l-1.47-11.050-1.45 11.050zM84.12 0.010h6.23v31.030h-6.23v-31.030zM92.94 0.010h5.93l3.18 12.45v-12.45h6.4v31.030h-6.4l-3.35-12.97v12.97h-5.76v-31.030z"></path>
</symbol>
<symbol id="icon-company4" viewBox="0 0 120 32">
<path d="M31.874 4.067c0.278 0.303 0.362 0.547 0.253 0.724-0.118 0.185-0.354 0.16-0.716 0-0.345-0.185-0.733-0.286-1.128-0.312-0.345 0.008-0.674-0.109-0.935-0.337-0.724-0.724-1.6-1.28-2.56-1.642-0.994-0.379-2.038-0.606-3.107-0.674-1.069-0.084-2.139-0.034-3.192 0.143-0.985 0.16-1.937 0.446-2.846 0.842-1.069 0.497-2.080 1.12-3.015 1.853-1.179 0.876-2.291 1.836-3.335 2.872-1.162 1.112-2.248 2.299-3.259 3.554-1.019 1.288-1.945 2.644-2.771 4.067-0.8 1.331-1.474 2.737-2.013 4.194-0.472 1.322-0.733 2.703-0.783 4.101-0.017 0.337 0.076 0.674 0.269 0.952 0.185 0.236 0.429 0.413 0.707 0.522 0.303 0.109 0.623 0.168 0.943 0.185 0.303 0.017 0.615 0.017 0.918 0 1.027-0.101 2.038-0.337 3.015-0.691 1.011-0.354 2.004-0.775 2.964-1.263 0.977-0.505 1.903-1.036 2.771-1.592 0.884-0.556 1.693-1.095 2.408-1.608 0.724-0.522 1.373-1.002 1.92-1.398 0.556-0.387 0.96-0.699 1.238-0.876 0.421-0.303 0.893-0.531 1.389-0.682 0.354-0.042 0.699-0.168 1.002-0.362l1.288-0.817c0.303-0.168 0.48-0.219 0.531-0.152 0.051 0.076 0 0.236-0.261 0.463-1.078 1.137-2.198 2.232-3.377 3.251-1.171 1.019-2.366 1.996-3.587 2.998-0.741 0.581-1.507 1.12-2.299 1.617-0.918 0.598-1.861 1.137-2.838 1.625-0.977 0.48-1.979 0.901-3.015 1.255-0.909 0.328-1.869 0.497-2.838 0.514-0.893 0.034-1.777-0.126-2.602-0.463-0.682-0.278-1.28-0.733-1.743-1.305-0.455-0.556-0.792-1.204-1.002-1.895-0.194-0.707-0.286-1.448-0.269-2.189 0.042-1.474 0.337-2.931 0.859-4.32 0.564-1.566 1.288-3.065 2.156-4.488 0.918-1.507 1.954-2.947 3.116-4.286 1.137-1.331 2.375-2.568 3.705-3.714 1.196-1.019 2.476-1.937 3.84-2.728 1.128-0.699 2.366-1.229 3.655-1.558 1.238-0.261 2.501-0.404 3.773-0.446 2.619-0.084 5.229 0.497 7.571 1.676 1.196 0.606 2.282 1.415 3.2 2.392zM20.48 19.116c-0.202 0.177-0.413 0.337-0.64 0.488-0.084 0-0.126 0-0.118-0.051 0.034-0.135 0.093-0.269 0.16-0.387 0.084-0.143 0.152-0.286 0.211-0.429 0.194-0.463 0.328-0.943 0.413-1.432 0.034-0.371 0.185-0.716 0.421-1.002l0.733-0.859c0.337-0.387 0.724-0.817 1.187-1.28 0.497-0.48 1.011-0.943 1.549-1.373 0.556-0.438 1.145-0.817 1.777-1.137 0.126-0.067 0.261-0.101 0.396-0.118 0.143-0.008 0.278 0.008 0.413 0.059 0.286 0.084 0.556 0.219 0.8 0.396 0.219 0.168 0.404 0.371 0.531 0.615 0.059 0.084 0.084 0.185 0.084 0.286s-0.025 0.194-0.084 0.278c-0.337 0.632-0.716 1.246-1.12 1.836-0.505 0.699-1.011 1.44-1.499 2.232-0.497 0.783-0.943 1.583-1.356 2.4-0.371 0.707-0.648 1.465-0.834 2.248 0.699-0.404 1.347-0.876 1.945-1.415 0.682-0.606 1.356-1.28 2.013-1.996 0.648-0.724 1.314-1.465 2.013-2.215l1.777-2.080c0.067-0.101 0.168-0.177 0.295-0.219 0.118-0.042 0.244-0.042 0.371 0 0.269 0.076 0.522 0.227 0.733 0.429 0.211 0.227 0.371 0.488 0.472 0.783 0.051 0.126 0.084 0.261 0.084 0.396 0 0.143-0.034 0.278-0.084 0.404-0.606 1.137-1.078 2.341-1.423 3.579 0.859-0.497 1.684-1.053 2.467-1.659 0.792-0.615 1.415-1.078 1.878-1.415 0.143-0.093 0.295-0.168 0.455-0.227l0.497-0.152c0.211-0.059 0.413-0.135 0.615-0.227 0.236-0.101 0.514-0.236 0.842-0.421 0.438-0.227 0.665-0.295 0.682-0.227 0.025 0.067-0.109 0.269-0.421 0.573-0.556 0.556-1.154 1.154-1.794 1.785-0.648 0.632-1.288 1.255-1.954 1.853-0.657 0.598-1.314 1.162-2.004 1.676-0.564 0.472-1.171 0.884-1.811 1.229-0.093 0.059-0.194 0.093-0.303 0.101-0.101 0.008-0.211 0-0.312-0.042-0.236-0.059-0.463-0.16-0.665-0.295-0.211-0.135-0.396-0.303-0.539-0.505-0.126-0.152-0.202-0.345-0.211-0.547-0.042-0.404-0.034-0.817 0.017-1.221-0.665 0.691-1.356 1.339-2.080 2.004-0.758 0.64-1.575 1.221-2.434 1.735-0.278 0.135-0.589 0.194-0.901 0.152-0.404-0.025-0.8-0.101-1.187-0.227-0.362-0.126-0.707-0.312-1.002-0.547-0.143-0.118-0.253-0.261-0.328-0.421-0.067-0.168-0.109-0.345-0.101-0.522-0.025-0.438 0.025-0.876 0.168-1.288 0.152-0.488 0.328-0.968 0.531-1.432 0.219-0.497 0.463-1.002 0.733-1.474l0.741-1.364c-0.48 0.455-0.952 0.909-1.415 1.364-0.463 0.463-0.952 0.926-1.381 1.305zM39.907 15.267c-0.632 0.733-1.221 1.373-1.726 1.937-0.32 0.404-0.749 0.716-1.246 0.876-0.211 0.017-0.421 0.017-0.632 0-0.236 0.017-0.463 0.093-0.665 0.211-0.303 0.152-0.589 0.337-0.842 0.556-0.244 0.202-0.497 0.396-0.766 0.564-0.177 0.126-0.211 0.076-0.101-0.126s0.522-0.741 1.213-1.6c1.103-1.373 2.164-2.703 3.192-4 0.952-1.213 1.844-2.467 2.661-3.773 0.059-0.076 0.143-0.135 0.244-0.168 0.093-0.025 0.194-0.025 0.286 0 0.244 0.051 0.463 0.143 0.674 0.261 0.253 0.118 0.472 0.286 0.657 0.488 0.177 0.211 0.261 0.379 0.227 0.531-0.126 0.413-0.236 0.808-0.337 1.204-0.101 0.387-0.194 0.8-0.269 1.196 0.775-0.539 1.667-0.876 2.602-1.002 0.488-0.042 0.994 0.051 1.432 0.269 0.463 0.227 0.893 0.514 1.272 0.867 0.345 0.312 0.64 0.674 0.876 1.078 0.185 0.278 0.286 0.606 0.286 0.952-0.042 0.808-0.337 1.592-0.842 2.223-0.514 0.657-1.137 1.213-1.836 1.667 0.808-0.261 1.6-0.598 2.349-1.002 0.632-0.362 1.162-0.682 1.608-1.002 0.438-0.32 0.825-0.547 1.137-0.758 0.261-0.202 0.581-0.345 0.909-0.404 0.126-0.008 0.253-0.008 0.379 0 0.118 0 0.227-0.025 0.328-0.076 0.143-0.067 0.278-0.16 0.396-0.261l0.657-0.539c0.177-0.168 0.295-0.236 0.337-0.168 0.051 0.059 0.051 0.118 0 0.168-0.573 0.918-1.246 1.768-2.004 2.552-0.8 0.834-1.676 1.592-2.627 2.265-0.926 0.665-1.92 1.229-2.964 1.701-0.977 0.438-2.013 0.716-3.082 0.834-0.236 0.017-0.472-0.008-0.691-0.076-0.345-0.084-0.682-0.185-1.011-0.312-0.312-0.109-0.615-0.261-0.893-0.446-0.219-0.135-0.413-0.32-0.547-0.539l-0.168 0.421c-0.295 0.842-0.606 1.701-0.909 2.568s-0.648 1.752-1.002 2.627c-0.362 0.867-0.775 1.709-1.229 2.535-0.438 0.8-0.952 1.549-1.549 2.248-0.067 0.076-0.152 0.126-0.253 0.16-0.093 0.025-0.202 0.034-0.295 0.008-0.253-0.051-0.472-0.185-0.64-0.379-0.219-0.253-0.379-0.539-0.48-0.859-0.109-0.396-0.143-0.817-0.093-1.221 0.278-2.038 0.851-4.034 1.718-5.903 0.935-2.063 1.971-4.084 3.107-6.046 0.118-0.227 0.261-0.463 0.404-0.691 0.135-0.227 0.278-0.438 0.429-0.648l0.32-0.968zM46.686 14.316c-1.078 0.025-2.114 0.421-2.931 1.12-0.825 0.699-1.558 1.516-2.156 2.417-0.126 0.505-0.253 0.994-0.362 1.474-0.118 0.472-0.253 0.994-0.404 1.457l0.219-0.109c0.623-0.269 1.204-0.606 1.752-1.002 0.657-0.438 1.28-0.935 1.853-1.491 0.581-0.539 1.078-1.162 1.474-1.844 0.371-0.606 0.564-1.314 0.556-2.021zM54.257 20.901c0.935-0.034 1.844-0.211 2.72-0.539 0.893-0.328 1.76-0.741 2.577-1.229 0.825-0.488 1.617-1.044 2.375-1.642 0.749-0.598 1.432-1.154 2.004-1.693 0.067-0.067 0.135-0.118 0.219-0.152 0.076-0.025 0.16-0.042 0.244-0.042 0.126 0 0.101 0.177-0.076 0.463-0.286 0.472-0.497 0.985-0.632 1.516-0.042 0.337-0.168 0.648-0.362 0.918-0.261 0.312-0.539 0.615-0.825 0.893-0.371 0.362-0.766 0.699-1.187 1.002-0.438 0.337-0.918 0.665-1.398 1.002-0.455 0.295-0.943 0.539-1.457 0.724-0.446 0.185-0.901 0.328-1.373 0.429-0.505 0.118-1.019 0.194-1.533 0.211-0.396-0.017-0.792-0.101-1.162-0.261-0.455-0.177-0.884-0.429-1.263-0.724s-0.716-0.632-1.011-1.002c-0.253-0.278-0.421-0.623-0.472-1.002-0.135-1.179-0.051-2.383 0.236-3.537 0.261-1.053 0.682-2.063 1.229-2.998 0.531-0.893 1.204-1.684 2.013-2.333 0.792-0.648 1.684-1.145 2.653-1.474 0.345-0.109 0.724-0.109 1.078 0 0.404 0.135 0.8 0.32 1.162 0.556 0.345 0.219 0.648 0.488 0.918 0.8 0.211 0.219 0.337 0.514 0.362 0.817-0.008 0.345-0.101 0.691-0.261 1.002-0.202 0.404-0.429 0.792-0.674 1.171-0.261 0.396-0.564 0.817-0.876 1.246l-0.909 1.221c-0.278 0.362-0.48 0.48-0.606 0.379-0.135-0.101-0.109-0.371 0-0.8 0.101-0.278 0.168-0.497 0.211-0.657 0.034-0.143 0.051-0.295 0.059-0.446 0-0.118-0.017-0.244-0.059-0.354-0.042-0.135-0.076-0.269-0.101-0.404-0.017-0.194 0-0.387 0.059-0.581 0.067-0.219 0.152-0.429 0.253-0.64 0.101-0.227 0.202-0.463 0.303-0.724s0.177-0.531 0.227-0.8c-0.775 0.312-1.465 0.8-2.013 1.423-0.657 0.733-1.213 1.549-1.642 2.434-0.472 0.926-0.808 1.912-1.011 2.931-0.202 0.952-0.202 1.945 0 2.897zM65.516 13.903c0.648-0.64 1.347-1.229 2.080-1.768 0.488-0.371 1.053-0.64 1.651-0.8 0.463-0.118 0.952-0.084 1.389 0.109 0.514 0.244 0.968 0.581 1.339 1.002l0.581-0.876c0.076-0.084 0.177-0.152 0.286-0.185s0.227-0.034 0.337 0c0.303 0.042 0.598 0.16 0.851 0.337 0.244 0.16 0.455 0.379 0.606 0.632 0.076 0.093 0.109 0.202 0.109 0.312 0 0.118-0.034 0.227-0.109 0.32-0.253 0.345-0.48 0.716-0.682 1.095-0.328 0.581-0.682 1.255-1.002 2.004s-0.707 1.491-1.002 2.232c-0.269 0.573-0.472 1.171-0.606 1.785-0.017 0.067-0.017 0.135 0 0.194v0.227c0.522-0.295 1.019-0.632 1.499-1.002 0.547-0.396 1.103-0.808 1.634-1.229l1.516-1.196 1.086-0.884c0.168-0.126 0.354-0.236 0.547-0.32 0.143-0.059 0.295-0.118 0.446-0.168l0.505-0.177c0.219-0.084 0.421-0.194 0.615-0.32 0.152-0.101 0.261-0.135 0.32-0.093s0 0.143-0.093 0.32c-1.002 1.322-2.004 2.602-3.175 3.848-0.312 0.337-0.648 0.716-1.002 1.145-0.387 0.421-0.8 0.817-1.246 1.179-0.421 0.337-0.893 0.615-1.398 0.817-0.48 0.194-1.002 0.211-1.499 0.059-0.699-0.093-1.339-0.455-1.794-0.994-0.278-0.505-0.354-1.095-0.194-1.642-0.472 0.691-0.985 1.356-1.524 1.996-0.421 0.531-0.918 0.977-1.491 1.331-1.735 1.002-3.015 0.674-3.907-1.095-0.202-0.438-0.303-0.909-0.303-1.389-0.017-0.665 0.093-1.314 0.32-1.937 0.278-0.792 0.64-1.558 1.095-2.265 0.632-0.952 1.373-1.827 2.215-2.611v0.008zM66.046 20.152c0.994-1.069 1.945-2.198 2.855-3.385 0.901-1.204 1.768-2.4 2.585-3.621-0.438-0.025-0.867 0.084-1.229 0.32-0.505 0.295-0.985 0.632-1.44 1.002-0.472 0.371-0.901 0.724-1.297 1.086-0.278 0.236-0.539 0.488-0.783 0.758-0.312 0.362-0.648 0.808-1.002 1.356-0.387 0.547-0.766 1.103-1.103 1.693-0.32 0.531-0.598 1.078-0.825 1.642-0.194 0.345-0.253 0.758-0.152 1.145 0.152 0.227 0.396 0.168 0.741-0.177l1.651-1.819zM94.787 16.387c0.135-0.076 0.278-0.135 0.421-0.185l0.404-0.109 0.488-0.168c0.194-0.084 0.438-0.194 0.716-0.337 0.278-0.152 0.522-0.286 0.573-0.211 0.051 0.067 0 0.227-0.312 0.505-0.514 0.632-1.112 1.322-1.827 2.063s-1.457 1.406-2.223 2.055c-0.716 0.615-1.474 1.179-2.257 1.684-0.589 0.404-1.255 0.682-1.954 0.817-0.817 0.126-1.651 0.025-2.408-0.286-0.648-0.219-1.196-0.64-1.566-1.213-0.269-0.472-0.413-1.002-0.438-1.549-0.051-0.598-0.051-1.196 0-1.785 0.025-0.244 0.126-0.48 0.278-0.665 0.16-0.194 0.362-0.337 0.598-0.404 0.387-0.177 0.766-0.379 1.137-0.598 0.429-0.253 0.842-0.547 1.221-0.867 0.387-0.345 0.741-0.724 1.061-1.128 0.328-0.354 0.573-0.766 0.733-1.221-0.825 0.253-1.592 0.674-2.265 1.221-0.691 0.531-1.339 1.103-1.945 1.726-0.623 0.64-1.221 1.305-1.777 2.004-0.606 0.749-1.162 1.457-1.667 2.147-0.514 0.691-0.952 1.288-1.297 1.836-0.354 0.539-0.598 0.867-0.699 0.994-0.084 0.143-0.194 0.269-0.328 0.362s-0.286 0.16-0.455 0.194c-0.312 0.051-0.632 0.034-0.943-0.051-0.303-0.084-0.589-0.227-0.834-0.429-0.093-0.067-0.152-0.16-0.185-0.261-0.025-0.101-0.017-0.219 0.034-0.312l3.596-6.467c-0.691 0.657-1.415 1.28-2.181 1.853-0.766 0.589-1.575 1.12-2.408 1.6-0.312 0.202-0.615 0.396-0.926 0.556s-0.539 0.286-0.699 0.371c-0.16 0.076-0.253 0.076-0.253 0 0-0.084 0.143-0.236 0.421-0.514 0.505-0.488 0.968-1.019 1.398-1.575 0.278-0.371 0.505-0.775 0.674-1.204 0.185-0.497 0.505-0.926 0.935-1.238l2.004-1.811c0.766-0.707 1.592-1.533 2.476-2.451 0.918-0.994 1.76-2.055 2.501-3.183 0.48-0.994 1.002-1.996 1.398-3.065s0.834-2.080 1.246-3.082c0.067-0.177 0.219-0.244 0.455-0.194 0.269 0.067 0.514 0.211 0.707 0.404 0.253 0.227 0.472 0.488 0.648 0.783 0.202 0.286 0.295 0.64 0.253 0.994-0.025 0.421-0.109 0.825-0.253 1.221-0.135 0.404-0.295 0.792-0.497 1.162-0.16 0.354-0.362 0.682-0.589 1.002-0.202 0.269-0.371 0.48-0.505 0.623-0.219 0.514-0.421 1.002-0.589 1.322s-0.337 0.716-0.514 1.002c-0.185 0.286-0.362 0.682-0.531 1.002-0.177 0.32-0.404 0.775-0.657 1.255 0.615-0.379 1.263-0.716 1.928-0.994 0.699-0.269 1.457-0.387 2.206-0.345 0.269 0.017 0.539 0.093 0.783 0.236 0.32 0.152 0.615 0.345 0.884 0.589 0.261 0.236 0.48 0.514 0.648 0.825 0.16 0.286 0.211 0.623 0.135 0.943-0.152 0.522-0.387 1.027-0.699 1.482-0.328 0.514-0.724 0.994-1.162 1.423-0.455 0.421-0.952 0.792-1.474 1.112-0.497 0.337-1.019 0.615-1.575 0.842-0.051 0.396 0.042 0.8 0.261 1.137 0.236 0.379 0.413 0.691 0.547 0.926 0.674-0.143 1.314-0.396 1.895-0.758 0.707-0.404 1.389-0.867 2.072-1.347s1.288-0.935 1.853-1.373c0.404-0.337 0.842-0.64 1.305-0.909v0.017zM101.179 15.545c-0.303 0.438-0.64 0.859-1.011 1.246-0.413 0.429-0.851 0.834-1.314 1.213-0.438 0.371-0.901 0.699-1.381 1.002-0.396 0.261-0.817 0.455-1.272 0.589 0 0.278 0.025 0.556 0.059 0.842 0.025 0.244 0.118 0.48 0.253 0.682 0.076 0.152 0.185 0.269 0.337 0.354 0.143 0.076 0.303 0.118 0.472 0.101 0.345-0.034 0.691-0.135 1.002-0.303 0.648-0.328 1.263-0.699 1.844-1.128 0.648-0.455 1.272-0.943 1.861-1.457 0.615-0.539 1.204-1.095 1.777-1.659 0.573-0.573 1.112-1.112 1.592-1.625 0.202-0.202 0.354-0.269 0.438-0.211 0.093 0.059 0.084 0.194 0 0.371-0.236 0.531-0.446 1.078-0.632 1.634-0.135 0.455-0.261 0.842-0.362 1.145s-0.253 0.589-0.438 0.851c-0.278 0.421-0.581 0.825-0.918 1.204-0.396 0.463-0.825 0.893-1.288 1.297-0.472 0.429-1.011 0.792-1.583 1.078-0.573 0.295-1.187 0.48-1.827 0.556-0.682 0.076-1.373-0.008-2.013-0.261-0.842-0.278-1.558-0.842-2.004-1.6-0.404-0.707-0.623-1.507-0.64-2.324-0.017-0.876 0.109-1.743 0.387-2.577 0.253-0.825 0.589-1.625 1.002-2.383 0.211-0.379 0.455-0.749 0.724-1.095 0.312-0.413 0.648-0.808 1.002-1.179 0.337-0.371 0.707-0.699 1.112-1.002 0.312-0.253 0.691-0.413 1.095-0.48 0.463-0.008 0.926 0.109 1.331 0.328 0.429 0.185 0.834 0.438 1.187 0.741 0.261 0.269 0.413 0.623 0.421 1.002 0.025 0.362-0.034 0.733-0.168 1.069-0.152 0.345-0.328 0.682-0.531 0.994l-0.514 0.985zM96.968 16.867c0.615-0.606 1.187-1.255 1.701-1.945 0.522-0.699 0.96-1.474 1.28-2.291-0.261 0.185-0.505 0.404-0.707 0.648-0.244 0.278-0.463 0.573-0.665 0.884-0.211 0.303-0.404 0.598-0.573 0.893-0.177 0.286-0.32 0.531-0.421 0.707l-0.615 1.103zM118.198 15.865c0.413-0.303 0.648-0.429 0.699-0.362 0.042 0.067-0.093 0.278-0.429 0.657-0.606 0.741-1.246 1.482-1.903 2.215-0.665 0.733-1.331 1.432-2.013 2.080-0.632 0.615-1.305 1.196-2.013 1.726-0.606 0.472-1.288 0.859-2.004 1.145-0.202 0.531-0.564 0.994-1.027 1.331-0.463 0.328-1.019 0.522-1.6 0.539s-1.162-0.084-1.709-0.303c-0.581-0.219-1.12-0.564-1.566-1.002-0.143-0.152-0.269-0.32-0.379-0.497-0.126-0.194-0.219-0.413-0.278-0.64-0.076-0.211-0.093-0.429-0.067-0.648 0.017-0.109 0.059-0.211 0.118-0.303s0.135-0.177 0.227-0.236c0.135-0.109 0.303-0.177 0.48-0.168 0.211 0 0.446 0 0.682 0 0.244 0 0.472 0 0.699 0.076l0.514 0.093c0.354 0 0.691 0 1.002 0s0.623-0.025 0.935-0.076c0.076-0.379 0.118-0.766 0.118-1.154v-1.069c0-0.691 0-1.381 0-2.080 0-0.707-0.101-1.406-0.168-2.114-0.926 0.994-1.903 1.937-2.922 2.821-1.069 0.909-2.013 1.701-2.855 2.358-0.362 0.278-0.522 0.32-0.505 0.135 0.059-0.261 0.185-0.505 0.354-0.707 0.177-0.227 0.328-0.472 0.455-0.733s0.236-0.522 0.328-0.792l0.244-0.682c0.059-0.177 0.168-0.337 0.312-0.463 0.328-0.328 0.884-0.994 1.667-1.853 0.935-1.162 1.777-2.4 2.501-3.705 0.042-0.084 0.118-0.152 0.211-0.194 0.084-0.042 0.185-0.051 0.278-0.034 0.244 0.034 0.488 0.118 0.699 0.253 0.227 0.135 0.438 0.303 0.632 0.497 0.152 0.118 0.261 0.286 0.32 0.472 0.227 1.347 0.438 2.737 0.632 4.185 0.194 1.415 0.219 2.846 0.101 4.269 0.539-0.269 1.044-0.606 1.507-0.994 0.522-0.421 1.002-0.851 1.524-1.28s1.011-0.842 1.44-1.221c0.387-0.328 0.808-0.615 1.263-0.842 0.286-0.118 0.539-0.219 0.766-0.303 0.269-0.084 0.514-0.219 0.733-0.387v-0.008z"></path>
</symbol>
<symbol id="icon-company5" viewBox="0 0 109 32">
<path d="M26.47 21.294c-1.363 1.558-3.047 2.817-4.932 3.694-1.885 0.87-3.937 1.336-6.010 1.37-7.659 0-12.744-4.883-12.744-12.897 0-8.257 6.24-13.217 10.97-13.217 1.064-0.056 2.115 0.139 3.082 0.57s1.823 1.085 2.483 1.906l0.828-2.003h5.677v10.157h-6.435c-0.111-2.323-1.266-4.515-3.833-4.515-2.56 0-4.292 3.193-4.292 7.103 0 3.562 1.843 6.762 5.273 6.762 3.033 0 5.412-3.165 5.739-3.52l4.195 4.591zM39.617 0.682v4.744h-2.24v5.419h6.859v-5.419h-2.129v-4.744h11.736v4.744h-2.080v15.617h2.080v4.744h-11.736v-4.744h2.129v-5.426h-6.859v5.426h2.24v4.744h-11.708v-4.744h1.997v-15.617h-1.997v-4.744h11.708zM55.29 13.071c0-7.722 5.203-13.071 12.675-13.071 8.849 0 12.967 5.273 12.967 13.357 0 8.077-4.557 13.078-12.717 13.078-7.548 0-12.925-4.348-12.925-13.329v-0.035zM71.896 13.322c0-4.348-1.19-7.826-3.972-7.826-2.205 0-3.722 3.123-3.722 7.576 0 4.71 1.663 7.687 4.007 7.687 2.337 0 3.694-2.943 3.694-7.402l-0.007-0.035zM105.739 21.294c-1.37 1.558-3.047 2.817-4.932 3.694-1.885 0.87-3.937 1.336-6.017 1.37-7.652 0-12.744-4.883-12.744-12.897 0-8.257 6.247-13.217 10.977-13.217 1.057-0.056 2.115 0.139 3.082 0.57s1.823 1.085 2.483 1.906l0.828-2.003h5.67v10.157h-6.463c-0.111-2.323-1.266-4.515-3.833-4.515-2.56 0-4.292 3.193-4.292 7.103 0 3.562 1.843 6.762 5.273 6.762 3.033 0 5.412-3.165 5.739-3.52l4.23 4.591z"></path>
</symbol>
<symbol id="icon-document" viewBox="0 0 24 32">
<path fill="#a68f4b" style="fill: var(--color1, #a68f4b)" d="M20 0h-16c-1.064 0-2.080 0.419-2.833 1.167-0.748 0.753-1.167 1.769-1.167 2.833v24c0 1.059 0.419 2.075 1.167 2.828 0.753 0.748 1.769 1.172 2.833 1.172h16c1.059 0 2.075-0.424 2.828-1.172 0.748-0.753 1.172-1.769 1.172-2.828v-24c0-1.064-0.424-2.080-1.172-2.833-0.753-0.748-1.769-1.167-2.828-1.167v0zM12.998 22h-8c-0.264 0-0.518-0.108-0.706-0.296s-0.292-0.442-0.292-0.706c0-0.264 0.104-0.518 0.292-0.706s0.442-0.292 0.706-0.292h8c0.264 0 0.518 0.104 0.706 0.292s0.296 0.442 0.296 0.706c0 0.264-0.108 0.518-0.296 0.706s-0.442 0.296-0.706 0.296zM18.998 16h-14c-0.264 0-0.518-0.108-0.706-0.296s-0.292-0.442-0.292-0.706c0-0.264 0.104-0.518 0.292-0.706s0.442-0.292 0.706-0.292h14c0.264 0 0.518 0.104 0.706 0.292s0.296 0.442 0.296 0.706c0 0.264-0.108 0.518-0.296 0.706s-0.442 0.296-0.706 0.296zM18.998 10h-14c-0.264 0-0.518-0.108-0.706-0.296s-0.292-0.442-0.292-0.706c0-0.264 0.104-0.518 0.292-0.706s0.442-0.292 0.706-0.292h14c0.264 0 0.518 0.104 0.706 0.292s0.296 0.442 0.296 0.706c0 0.264-0.108 0.518-0.296 0.706s-0.442 0.296-0.706 0.296z"></path>
</symbol>
<symbol id="icon-energy" viewBox="0 0 24 32">
<path fill="#a68f4b" style="fill: var(--color1, #a68f4b)" d="M15.040 14h6.974c0.405-0.009 0.795 0.113 1.125 0.348 0.325 0.231 0.569 0.56 0.696 0.941 0.165 0.376 0.207 0.791 0.113 1.191-0.089 0.4-0.301 0.758-0.612 1.026l-16.014 14c-0.339 0.296-0.772 0.471-1.228 0.494-0.452 0.019-0.899-0.113-1.271-0.381-0.367-0.268-0.631-0.649-0.753-1.087-0.118-0.438-0.085-0.904 0.094-1.322l4.809-11.209h-7.031c-0.405-0.014-0.791-0.146-1.12-0.381-0.325-0.235-0.574-0.565-0.711-0.946-0.136-0.376-0.155-0.786-0.052-1.176 0.099-0.391 0.315-0.739 0.621-1.007l16.014-14c0.339-0.296 0.772-0.471 1.224-0.489 0.456-0.024 0.904 0.113 1.271 0.376 0.367 0.268 0.631 0.649 0.753 1.087s0.089 0.904-0.089 1.322l-4.814 11.214z"></path>
</symbol>
<symbol id="icon-heart" viewBox="0 0 32 32">
<path fill="none" stroke="#e63946" style="stroke: var(--color2, #e63946)" stroke-linejoin="round" stroke-linecap="butt" stroke-miterlimit="4" stroke-width="3.7647" d="M24.885 4.536c-0.885-0.376-1.826-0.565-2.767-0.565s-1.882 0.188-2.767 0.565c-0.866 0.358-1.656 0.885-2.334 1.562l-1.016 1.035-1.035-1.035c-0.678-0.678-1.468-1.205-2.334-1.562-0.885-0.376-1.826-0.565-2.767-0.565s-1.882 0.188-2.767 0.565c-0.866 0.358-1.656 0.885-2.334 1.562-2.824 2.824-2.993 7.605 0.565 11.219l10.673 10.673 10.654-10.673c3.558-3.614 3.388-8.395 0.565-11.219-0.678-0.678-1.468-1.205-2.334-1.562z"></path>
</symbol>
<symbol id="icon-ruler" viewBox="0 0 32 32">
<path fill="#a68f4b" style="fill: var(--color1, #a68f4b)" d="M0 2c0-0.532 0.207-1.040 0.584-1.416s0.885-0.584 1.416-0.584h8c0.527 0 1.035 0.207 1.412 0.584s0.588 0.885 0.588 1.416v24c0 1.591-0.635 3.115-1.76 4.24s-2.649 1.76-4.24 1.76c-1.595 0-3.12-0.635-4.245-1.76s-1.755-2.649-1.755-4.24v-24zM8 4h-4v4h4v-4zM4 16h4v-4h-4v4zM6 27.496c0.296 0 0.584-0.085 0.833-0.249 0.245-0.165 0.438-0.4 0.551-0.678 0.113-0.273 0.141-0.574 0.085-0.866s-0.202-0.555-0.409-0.767c-0.212-0.207-0.475-0.353-0.767-0.409s-0.593-0.028-0.866 0.085c-0.278 0.113-0.508 0.306-0.678 0.551-0.165 0.249-0.249 0.536-0.249 0.838 0 0.193 0.038 0.391 0.113 0.574 0.075 0.179 0.184 0.348 0.325 0.485 0.141 0.141 0.306 0.249 0.485 0.325 0.184 0.075 0.381 0.113 0.579 0.113zM14 26v-16.376l4.711-4.711c0.376-0.376 0.885-0.588 1.416-0.588s1.040 0.212 1.416 0.588l5.656 5.652c0.372 0.376 0.584 0.885 0.584 1.416s-0.212 1.040-0.584 1.416l-13.228 13.219c0.019-0.202 0.028-0.414 0.028-0.616zM23.421 20h6.579c0.527 0 1.035 0.207 1.412 0.584s0.588 0.885 0.588 1.416v8c0 0.527-0.212 1.035-0.588 1.412s-0.885 0.588-1.412 0.588h-18.579l12-12z"></path>
</symbol>
<symbol id="icon-vantage" viewBox="0 0 124 32">
<path fill="#fff" style="fill: var(--color3, #fff)" d="M29.629 28.571h-5.505l-0.751 3.429h-6.165l5.91-22.857h7.615l5.904 22.857h-6.289l-0.718-3.429zM28.663 24.163l-1.75-8.222-1.829 8.222h3.579z"></path>
<path fill="#fff" style="fill: var(--color3, #fff)" d="M54.282 9.143v22.857h-5.362l-5.12-12.003v12.003h-5.727v-22.857h5.368l5.12 12.206v-12.206h5.721z"></path>
<path fill="#fff" style="fill: var(--color3, #fff)" d="M71.001 13.59h-4.434v18.41h-6.25v-18.41h-4.421v-4.447h15.105v4.447z"></path>
<path fill="#fff" style="fill: var(--color3, #fff)" d="M83.598 28.571h-5.512l-0.751 3.429h-6.158l5.91-22.857h7.621l5.904 22.857h-6.296l-0.718-3.429zM82.632 24.157l-1.75-8.216-1.829 8.222 3.579-0.007z"></path>
<path fill="#fff" style="fill: var(--color3, #fff)" d="M101.211 16.973v-2.958c0-0.529-0.287-0.784-0.895-0.784h-1.293c-0.607 0-0.895 0.255-0.895 0.784v13.107c0 0.535 0.287 0.784 0.895 0.784h1.293c0.607 0 0.895-0.248 0.895-0.784v-3.807h-1.789v-3.958h8.039v8.229c0 2.665-1.437 4.415-5.257 4.415h-5.087c-3.827 0-5.257-1.75-5.257-4.415v-14.034c0-2.665 1.437-4.408 5.257-4.408h5.087c3.827 0 5.257 1.744 5.257 4.408v3.429l-6.25-0.007z"></path>
<path fill="#fff" style="fill: var(--color3, #fff)" d="M124.082 27.546v4.454h-14.106v-22.857h13.786v4.447h-7.523v4.663h6.478v4.454h-6.478v4.839h7.843z"></path>
<path fill="#fff" style="fill: var(--color3, #fff)" d="M12.062 0l-4.408 24.411-1.339-7.843h-6.315l4.036 15.432h7.269l6.498-26.286h106.279l-112.020-5.714z"></path>
</symbol>
<symbol id="icon-worker" viewBox="0 0 28 32">
<path fill="#a68f4b" style="fill: var(--color1, #a68f4b)" d="M14.118 20c1.958-0.005 3.849-0.72 5.318-2.009s2.409-3.064 2.649-4.993h-15.934c0.24 1.929 1.181 3.704 2.645 4.993 1.468 1.289 3.36 2.005 5.322 2.009zM5.544 10.998h17.144c0.132 0 0.264-0.052 0.358-0.146s0.146-0.221 0.146-0.353v-2c0-0.132-0.052-0.259-0.146-0.353s-0.226-0.146-0.358-0.146h-0.504c0-1.379-0.409-2.725-1.176-3.873-0.762-1.144-1.854-2.042-3.134-2.579l-1.741 3.449v-4c0-0.132-0.024-0.264-0.075-0.381-0.052-0.122-0.122-0.235-0.216-0.325-0.094-0.094-0.207-0.169-0.329-0.216-0.122-0.052-0.254-0.080-0.386-0.075h-2.019c-0.132-0.005-0.264 0.024-0.386 0.075-0.122 0.047-0.231 0.122-0.325 0.216-0.094 0.089-0.169 0.202-0.221 0.325-0.052 0.118-0.075 0.249-0.075 0.381v4l-1.741-3.454c-1.275 0.536-2.367 1.435-3.134 2.584s-1.176 2.494-1.176 3.873h-0.504c-0.132 0-0.259 0.052-0.353 0.146s-0.151 0.221-0.151 0.353v1.944c-0.005 0.071 0.005 0.141 0.028 0.207 0.019 0.066 0.056 0.127 0.104 0.179s0.104 0.094 0.169 0.122c0.061 0.028 0.132 0.047 0.202 0.047zM19.835 22h-11.435c-2.231 0-4.367 0.875-5.944 2.438-1.572 1.562-2.456 3.685-2.456 5.892 0 0.442 0.174 0.866 0.489 1.181 0.315 0.311 0.744 0.485 1.191 0.489h24.871c0.447 0 0.875-0.179 1.191-0.489 0.315-0.315 0.494-0.739 0.494-1.181 0-1.092-0.216-2.179-0.64-3.186-0.424-1.012-1.040-1.929-1.821-2.706-0.781-0.772-1.704-1.388-2.725-1.807s-2.113-0.635-3.214-0.631z"></path>
</symbol>
</defs>
</svg>
